<?xml version="1.0" standalone="no"?>
<!DOCTYPE svg PUBLIC "-//W3C//DTD SVG 20010904//EN"
 "http://www.w3.org/TR/2001/REC-SVG-20010904/DTD/svg10.dtd">
<svg version="1.0" xmlns="http://www.w3.org/2000/svg"
 width="469pt" height="534pt" viewBox="0 0 469 534"
 preserveAspectRatio="xMidYMid meet">
<metadata>
Created by potrace 1.7, written by Peter Selinger 2001-2005
</metadata>
<g transform="translate(0,534) scale(0.410526,-0.410526)"
fill="#000000" stroke="none">
<path d="M0 650 l0 -650 415 0 415 0 1 33 c1 17 0 37 -1 42 -1 6 2 7 6 2 4 -4
18 0 31 8 13 9 23 12 22 8 -1 -4 -1 -27 0 -50 l1 -43 125 0 125 0 0 650 0 650
-570 0 -570 0 0 -650z m608 587 c2 -11 -2 -14 -16 -10 -10 2 -19 10 -19 18 0
18 31 12 35 -8z m-48 -2 c0 -7 -30 -13 -34 -7 -3 4 4 9 15 9 10 1 19 0 19 -2z
m-90 -15 c0 -5 -7 -7 -15 -4 -8 4 -15 8 -15 10 0 2 7 4 15 4 8 0 15 -4 15 -10z
m175 -20 c-3 -5 0 -10 7 -11 10 0 10 -2 0 -6 -6 -2 -9 -10 -5 -16 3 -7 2 -9
-2 -4 -13 12 -16 47 -4 47 5 0 7 -4 4 -10z m61 -56 c1 -22 -10 -25 -33 -11
-22 14 -15 39 10 35 14 -2 22 -10 23 -24z m-306 -24 c0 -12 -7 -20 -17 -20
-15 0 -16 2 -3 10 11 7 11 10 2 10 -7 0 -10 5 -7 10 10 17 25 11 25 -10z m308
-114 c-2 -17 -7 -31 -13 -31 -5 0 -11 14 -13 31 -2 23 1 31 13 31 12 0 15 -8
13 -31z m2 -81 c0 -12 44 -31 63 -26 5 1 6 -2 3 -7 -3 -5 13 -15 34 -22 22 -7
40 -17 40 -22 0 -4 7 -8 16 -8 9 0 32 -16 53 -37 20 -20 27 -31 16 -26 -21 12
-26 13 -51 13 -8 0 -12 5 -9 10 3 6 -2 10 -12 10 -10 0 -27 7 -37 15 -11 8
-37 15 -58 15 -21 0 -38 5 -38 10 0 6 -7 10 -17 10 -9 0 -13 3 -10 7 4 3 0 17
-9 31 -8 13 -13 30 -10 38 7 18 26 9 26 -11z m-309 -37 c1 -7 1 -16 0 -20 0
-5 6 -8 15 -8 8 0 12 -4 9 -10 -3 -5 -2 -10 3 -10 18 0 21 -29 5 -45 -10 -11
-29 -15 -57 -13 -41 3 -41 3 -41 -32 l0 -35 -67 0 c-36 1 -64 -3 -62 -7 3 -4
-1 -8 -8 -9 -10 0 -10 -2 0 -6 6 -2 12 -13 12 -23 0 -19 -19 -30 -52 -30 -10
0 -26 -7 -35 -15 -8 -8 -20 -12 -26 -8 -8 4 -8 2 1 -9 10 -13 9 -15 -13 -10
-30 5 -30 29 0 46 11 6 27 19 36 29 9 9 21 17 26 17 5 0 15 10 22 23 6 12 23
27 36 34 14 6 23 7 19 2 -3 -5 0 -9 6 -9 6 0 14 8 17 17 7 18 55 67 96 98 15
11 27 25 27 32 0 17 30 17 31 1z m112 -176 l5 -43 -35 3 c-38 2 -51 13 -28 22
9 3 15 18 15 36 0 16 5 30 11 30 8 0 7 6 -2 18 -8 11 -6 10 8 -3 12 -12 23
-38 26 -63z m460 42 c9 -9 -4 -34 -17 -34 -6 0 -12 9 -13 20 -2 19 16 27 30
14z m-595 -49 c-4 7 6 9 28 7 23 -3 34 -9 30 -17 -2 -7 0 -17 6 -23 6 -6 0 -8
-19 -6 -15 2 -20 1 -10 -2 26 -8 20 -22 -8 -16 -14 2 -22 8 -19 13 3 5 0 9 -6
9 -6 0 -8 5 -5 10 3 6 -1 10 -9 10 -9 0 -16 7 -16 16 0 14 2 15 17 3 9 -8 14
-9 11 -4z m107 -65 c8 0 17 -5 21 -12 4 -7 3 -8 -4 -4 -7 4 -12 2 -12 -4 0 -6
-4 -8 -10 -5 -5 3 -10 1 -10 -5 0 -7 -5 -6 -14 2 -16 14 -16 26 -1 44 8 9 11
9 13 -2 2 -8 10 -14 17 -14z m-275 -12 c0 8 12 12 34 10 19 -1 32 -6 30 -10
-3 -4 2 -8 10 -8 9 0 16 -4 16 -10 0 -5 7 -10 15 -10 8 0 14 -3 14 -7 -3 -21
2 -34 11 -28 6 4 10 3 9 -2 -4 -21 2 -44 10 -39 5 3 12 -6 15 -20 6 -23 11
-26 44 -21 20 3 46 7 57 10 11 3 24 6 28 6 5 1 5 6 2 11 -3 6 -1 10 4 10 6 0
11 -6 11 -12 0 -8 3 -9 8 -3 9 13 35 19 28 6 -4 -5 -2 -12 3 -16 15 -9 2 -32
-22 -39 -17 -4 -19 -8 -9 -18 15 -15 16 -42 1 -32 -8 5 -8 1 0 -14 6 -11 11
-33 11 -47 0 -32 21 -55 49 -55 12 0 21 -4 21 -8 0 -5 6 -9 13 -9 6 -1 28 -4
47 -7 19 -4 42 -7 50 -8 8 0 18 -6 22 -12 5 -8 8 -7 8 2 0 6 8 12 19 12 10 0
28 14 41 30 13 17 29 30 37 30 8 0 12 4 9 8 -2 4 6 8 19 8 13 0 21 -4 19 -8
-3 -4 2 -8 10 -8 15 0 21 -12 17 -33 -1 -5 3 -6 9 -2 5 3 10 -1 10 -9 0 -10 9
-16 26 -16 16 0 23 -4 18 -12 -5 -8 0 -9 14 -6 12 4 22 2 22 -4 0 -5 10 -19
22 -30 13 -11 17 -17 11 -13 -7 3 -13 3 -13 -2 0 -4 -27 -6 -60 -5 -48 3 -60
7 -60 20 0 15 -2 15 -10 2 -9 -13 -10 -13 -10 0 0 13 -1 13 -10 0 -5 -9 -5
-19 2 -27 8 -10 5 -13 -11 -13 -15 0 -20 -4 -15 -12 4 -7 4 -10 -1 -6 -4 4
-15 2 -23 -5 -13 -10 -15 -9 -9 6 5 14 -5 24 -15 15 -7 -5 -46 37 -42 44 3 4
-2 8 -10 8 -9 0 -16 -5 -16 -11 0 -6 -7 -17 -15 -25 -13 -14 -18 -12 -39 10
-22 25 -43 36 -32 17 7 -11 -21 -8 -31 4 -4 4 -2 5 5 1 6 -4 12 -2 12 4 0 17
-31 24 -41 9 -7 -12 -9 -12 -9 0 0 11 -3 11 -15 1 -9 -7 -18 -10 -22 -6 -3 3
-2 6 3 6 5 0 10 9 11 21 2 18 -3 21 -32 17 -28 -3 -32 -1 -23 10 6 7 7 12 2
11 -26 -5 -64 2 -59 11 4 6 -5 10 -19 10 -21 0 -26 5 -26 25 0 14 -5 25 -11
25 -5 0 -7 5 -4 10 3 6 -3 10 -14 10 -12 0 -21 -7 -21 -16 0 -8 -5 -12 -11 -8
-7 4 -7 -1 1 -16 7 -13 8 -20 2 -16 -6 4 -12 -5 -14 -21 -3 -25 -4 -26 -20
-10 -12 12 -18 14 -21 4 -3 -6 -6 1 -6 16 -1 16 -5 26 -9 23 -5 -3 -9 1 -9 9
0 8 5 11 11 8 6 -4 5 1 -3 10 -9 11 -10 17 -2 17 6 0 11 5 11 11 0 5 -4 8 -8
5 -5 -3 -9 1 -9 9 0 8 4 12 8 10 4 -3 6 3 5 12 -2 10 -10 19 -19 21 -13 3 -17
-4 -17 -25 0 -47 -16 -60 -28 -24 -6 17 -16 31 -23 31 -7 0 -10 3 -6 6 10 10
-31 43 -52 41 -12 -1 -21 -2 -21 -3 0 -7 40 -45 40 -38 1 5 7 -6 15 -23 8 -18
19 -33 25 -33 6 0 8 -4 5 -10 -3 -5 0 -10 8 -10 10 0 13 -7 10 -20 -3 -11 -13
-20 -22 -20 -14 0 -14 2 -1 10 8 5 10 10 4 10 -6 0 -17 -7 -24 -15 -14 -17 -8
-19 41 -15 22 1 26 -3 25 -22 -1 -20 -6 -23 -35 -21 -19 1 -38 8 -42 15 -7 10
-9 10 -9 -1 0 -9 -7 -6 -20 9 -11 13 -20 29 -20 37 0 7 -4 13 -10 13 -5 0 -10
9 -10 19 0 10 -6 21 -14 24 -9 4 -12 15 -8 33 3 19 1 25 -7 20 -6 -4 -11 -1
-11 9 0 9 -3 14 -7 12 -10 -6 -8 66 1 82 6 9 12 9 24 -1 12 -10 14 -10 8 0 -4
6 -2 12 3 12 6 0 11 -6 11 -13 0 -7 9 -13 20 -14 22 -2 36 12 20 22 -9 5 4 41
21 55 3 3 9 14 13 25 6 16 9 17 16 5 7 -11 10 -11 10 -2z m597 -67 c-10 -12
-9 -13 1 -7 10 6 12 -2 11 -33 -2 -23 -5 -41 -7 -41 -13 0 -31 39 -32 67 0 25
4 31 19 30 16 -1 18 -4 8 -16z m-197 -124 c0 -7 -4 -6 -10 3 -6 9 -10 10 -10
3 0 -6 -9 -11 -20 -10 -26 2 -25 6 3 16 25 10 37 6 37 -12z m50 14 c0 -6 -4
-13 -10 -16 -5 -3 -10 1 -10 9 0 9 5 16 10 16 6 0 10 -4 10 -9z m292 -135 c7
4 8 2 4 -5 -9 -13 -26 -5 -25 12 0 9 2 8 6 -1 2 -6 10 -9 15 -6z m-568 -88
c-5 -7 -2 -8 7 -2 18 11 60 13 53 2 -3 -4 8 -8 24 -8 16 0 35 -7 42 -15 7 -8
16 -12 21 -9 9 5 13 -17 10 -45 -2 -7 2 -10 9 -6 7 5 7 0 -1 -13 -7 -12 -17
-18 -21 -16 -5 3 -8 2 -7 -3 5 -27 -3 -34 -33 -31 -20 2 -37 11 -43 23 -6 11
-15 21 -20 22 -6 1 -24 5 -40 9 -28 7 -29 6 -15 -11 14 -17 13 -18 -3 -12 -13
5 -16 3 -10 -6 16 -26 12 -39 -6 -22 -17 15 -19 14 -24 -5 -4 -16 -13 -20 -51
-20 -41 0 -46 3 -46 22 0 17 -3 19 -12 10 -13 -13 -29 -16 -26 -5 3 15 -14 63
-23 63 -5 0 -9 11 -9 25 0 14 -5 25 -12 25 -9 0 -9 3 0 12 14 14 92 12 107 -3
5 -5 17 -9 26 -9 10 0 26 -11 36 -24 11 -15 29 -25 48 -26 43 -3 59 -1 52 6
-3 3 -2 16 3 29 6 17 5 27 -6 36 -12 10 -15 10 -12 -2 2 -8 -4 -14 -12 -14 -9
0 -15 10 -16 22 -1 12 3 20 8 17 4 -3 5 -10 2 -16z"/>
<path d="M586 252 c-3 -5 1 -9 9 -9 8 0 12 4 9 9 -3 4 -7 8 -9 8 -2 0 -6 -4
-9 -8z"/>
</g>
</svg>
